# xmcd CD database file
#
# Track frame offsets:
#	150
#	14872
#	30047
#	41762
#	54587
#	69640
#	82567
#	95482
#	109637
#	124702
#
# Disc length: 1846 seconds
#
# Revision: 1
# Processed by: cddbd v1.5.1PL2 Copyright (c) Steve Scherf et al.
# Submitted via: FreedomBox 2.2beta
#
DISCID=7507340a
DTITLE=George Strait - Greatest Hits Volume Two
DYEAR=1900
DGENRE=
TTITLE0=DOES FORT WORTH EVER CROSS YOUR MIND
TTITLE1=THE COWBOY RIDES AWAY
TTITLE2=THE FIREMAN
TTITLE3=THE CHAIR
TTITLE4=YOU'RE SOMETHING SPECIAL TO ME
TTITLE5=NOBODY IN HIS RIGHT MIND WOULD'VE LEFT HER
TTITLE6=IT AIN'T COOL TO BE CRAZY
TTITLE7=OCEAN FRONT PROPERTY
TTITLE8=ALL MY EX'S LIVE IN TEXAS
TTITLE9=AM I BLUE
EXTD=ROCK AND ROLL\nHALL OF FAME\nVOLUME 1X
EXTT0=
EXTT1=
EXTT2=
EXTT3=
EXTT4=
EXTT5=
EXTT6=
EXTT7=
EXTT8=
EXTT9=
PLAYORDER=
